<svg width="256" height="231" viewBox="0 0 256 231" fill="none" xmlns="http://www.w3.org/2000/svg">
<g style="mix-blend-mode:soft-light" opacity="0.5">
<path d="M84.1792 -4.15447V164.06C84.1792 175.102 81.8501 184.85 77.1918 193.304C72.5335 201.93 66.2363 209.09 58.3 214.784C50.3637 220.65 41.3922 224.79 31.3856 227.206C21.5515 229.621 11.3723 230.139 0.848129 228.758V226.429C9.12948 222.634 15.4268 217.372 19.74 210.643C24.2257 203.914 27.2449 196.409 28.7977 188.128C30.3504 179.847 31.1268 171.565 31.1268 163.284V-4.15447H84.1792ZM31.9032 14.7374H31.1268C30.9543 10.2516 29.229 6.45601 25.951 3.35051C22.8455 0.0724685 19.0498 -1.56655 14.5641 -1.56655C14.5641 -1.56655 13.9603 -1.56655 12.7526 -1.56655C11.7174 -1.56655 11.1998 -1.56655 11.1998 -1.56655V-4.15447H31.9032V14.7374ZM83.4028 14.7374V-4.15447H104.106V-1.56655C104.106 -1.56655 103.502 -1.56655 102.295 -1.56655C101.259 -1.56655 100.742 -1.56655 100.742 -1.56655C96.2561 -1.56655 92.3743 0.0724685 89.0962 3.35051C85.9907 6.45601 84.3517 10.2516 84.1792 14.7374H83.4028ZM187.91 -7.77756C191.706 -7.77756 196.796 -7.60503 203.179 -7.25997C209.563 -6.91492 216.205 -6.39733 223.106 -5.70722C230.007 -5.18963 236.046 -4.58579 241.221 -3.89568C246.397 -3.37809 249.762 -2.77424 251.314 -2.08413L246.139 36.9935H243.551C243.551 27.5044 239.841 19.8269 232.423 13.961C225.176 8.09502 215.17 5.16205 202.403 5.16205C191.878 5.16205 183.511 7.23238 177.3 11.3731C171.089 15.3412 167.725 20.517 167.207 26.9006C166.689 33.1116 168.76 37.9424 173.418 41.3929C178.249 44.8435 183.856 48.0353 190.239 50.9683L238.634 73.4832C248.295 77.7964 255.886 84.0936 261.407 92.375C266.928 100.656 269.257 111.094 268.395 123.689C267.187 142.149 259.423 156.297 245.103 166.131C230.956 175.792 211.633 180.623 187.134 180.623C177.127 180.623 168.07 179.847 159.961 178.294C151.852 176.741 144.865 174.757 138.999 172.342C133.305 169.754 128.906 166.907 125.8 163.802C123.902 159.488 123.126 154.226 123.471 148.015C123.816 141.804 124.938 135.68 126.835 129.641C128.906 123.43 131.321 118.513 134.082 114.89H136.411C135.893 123.861 137.791 132.401 142.104 140.51C146.417 148.619 152.887 155.175 161.514 160.179C170.14 165.182 180.492 167.683 192.569 167.683C204.991 167.683 214.135 165.096 220.001 159.92C226.039 154.744 229.058 148.878 229.058 142.322C229.058 136.801 226.902 131.798 222.588 127.312C218.448 122.826 211.46 118.34 201.626 113.855L159.443 94.1865C147.539 88.6656 138.826 81.0744 133.305 71.4128C127.957 61.7513 126.059 50.7957 127.612 38.5462C128.819 28.5396 132.011 20.0857 137.187 13.1846C142.363 6.28348 149.178 1.10764 157.632 -2.34292C166.258 -5.96601 176.351 -7.77756 187.91 -7.77756ZM251.832 -5.18964L251.056 0.245H213.531V-5.18964H251.832Z" fill="black"/>
</g>
</svg>
