<svg width="125" height="32" viewBox="0 0 125 32" fill="none" xmlns="http://www.w3.org/2000/svg">
<path d="M7.296 8.672C8.48 8.672 9.512 9.016 10.392 9.704C11.288 10.392 11.984 11.384 12.48 12.68C12.976 13.96 13.224 15.52 13.224 17.36C13.224 19.152 12.968 20.72 12.456 22.064C11.944 23.408 11.24 24.456 10.344 25.208C9.448 25.96 8.424 26.336 7.272 26.336C6.088 26.336 5.048 25.992 4.152 25.304C3.272 24.616 2.584 23.624 2.088 22.328C1.592 21.032 1.344 19.472 1.344 17.648C1.344 15.856 1.6 14.288 2.112 12.944C2.624 11.6 3.328 10.552 4.224 9.8C5.12 9.048 6.144 8.672 7.296 8.672ZM7.2 9.104C6.032 9.104 5.16 9.832 4.584 11.288C4.024 12.744 3.744 14.832 3.744 17.552C3.744 20.352 4.064 22.448 4.704 23.84C5.36 25.216 6.248 25.904 7.368 25.904C8.552 25.904 9.424 25.176 9.984 23.72C10.544 22.264 10.824 20.176 10.824 17.456C10.824 14.656 10.496 12.568 9.84 11.192C9.2 9.8 8.32 9.104 7.2 9.104ZM20.3621 8.768V23.456C20.3621 24.032 20.4101 24.464 20.5061 24.752C20.6021 25.04 20.7861 25.232 21.0581 25.328C21.3461 25.424 21.7621 25.488 22.3061 25.52V26C21.9701 25.968 21.5301 25.952 20.9861 25.952C20.4421 25.936 19.8581 25.928 19.2341 25.928C18.5941 25.928 17.9621 25.936 17.3381 25.952C16.7141 25.952 16.1941 25.968 15.7781 26V25.52C16.4501 25.488 16.9621 25.424 17.3141 25.328C17.6661 25.232 17.8981 25.04 18.0101 24.752C18.1381 24.464 18.2021 24.032 18.2021 23.456V12.608C18.2021 12.048 18.1221 11.64 17.9621 11.384C17.8021 11.112 17.5141 10.936 17.0981 10.856C16.6981 10.776 16.1381 10.736 15.4181 10.736V10.232C16.6981 10.04 17.7141 9.816 18.4661 9.56C19.2341 9.288 19.8661 9.024 20.3621 8.768Z" fill="#460B2F"/>
<path d="M40 16L125 16" stroke="#460B2F" stroke-width="0.5"/>
</svg>
