<svg width="593" height="53" viewBox="0 0 593 53" fill="none" xmlns="http://www.w3.org/2000/svg">
<path d="M12.16 14.12C14.1333 14.12 15.8533 14.6933 17.32 15.84C18.8133 16.9867 19.9733 18.64 20.8 20.8C21.6267 22.9333 22.04 25.5333 22.04 28.6C22.04 31.5867 21.6133 34.2 20.76 36.44C19.9067 38.68 18.7333 40.4267 17.24 41.68C15.7467 42.9333 14.04 43.56 12.12 43.56C10.1467 43.56 8.41333 42.9867 6.92 41.84C5.45333 40.6933 4.30667 39.04 3.48 36.88C2.65333 34.72 2.24 32.12 2.24 29.08C2.24 26.0933 2.66667 23.48 3.52 21.24C4.37333 19 5.54667 17.2533 7.04 16C8.53333 14.7467 10.24 14.12 12.16 14.12ZM12 14.84C10.0533 14.84 8.6 16.0533 7.64 18.48C6.70667 20.9067 6.24 24.3867 6.24 28.92C6.24 33.5867 6.77333 37.08 7.84 39.4C8.93333 41.6933 10.4133 42.84 12.28 42.84C14.2533 42.84 15.7067 41.6267 16.64 39.2C17.5733 36.7733 18.04 33.2933 18.04 28.76C18.04 24.0933 17.4933 20.6133 16.4 18.32C15.3333 16 13.8667 14.84 12 14.84ZM33.9369 14.28V38.76C33.9369 39.72 34.0169 40.44 34.1769 40.92C34.3369 41.4 34.6435 41.72 35.0969 41.88C35.5769 42.04 36.2702 42.1467 37.1769 42.2V43C36.6169 42.9467 35.8835 42.92 34.9769 42.92C34.0702 42.8933 33.0969 42.88 32.0569 42.88C30.9902 42.88 29.9369 42.8933 28.8969 42.92C27.8569 42.92 26.9902 42.9467 26.2969 43V42.2C27.4169 42.1467 28.2702 42.04 28.8569 41.88C29.4435 41.72 29.8302 41.4 30.0169 40.92C30.2302 40.44 30.3369 39.72 30.3369 38.76V20.68C30.3369 19.7467 30.2035 19.0667 29.9369 18.64C29.6702 18.1867 29.1902 17.8933 28.4969 17.76C27.8302 17.6267 26.8969 17.56 25.6969 17.56V16.72C27.8302 16.4 29.5235 16.0267 30.7769 15.6C32.0569 15.1467 33.1102 14.7067 33.9369 14.28Z" fill="#460B2F"/>
<path d="M55 30H593" stroke="#460B2F" stroke-width="0.5"/>
</svg>
