<svg width="14" height="13" viewBox="0 0 14 13" fill="none" xmlns="http://www.w3.org/2000/svg">
<path d="M9.43906 1.0315C10.1488 1.03354 10.8288 1.30593 11.3306 1.78917C11.8324 2.27242 12.1153 2.92725 12.1174 3.61066V8.76843C12.1153 9.45184 11.8324 10.1067 11.3306 10.5899C10.8288 11.0732 10.1488 11.3456 9.43906 11.3476H4.08291C3.37321 11.3456 2.69319 11.0732 2.19136 10.5899C1.68953 10.1067 1.40667 9.45184 1.40455 8.76843V3.61066C1.40667 2.92725 1.68953 2.27242 2.19136 1.78917C2.69319 1.30593 3.37321 1.03354 4.08291 1.0315H9.43906ZM9.43906 0H4.08291C2.02062 0 0.333374 1.62476 0.333374 3.61066V8.76843C0.333374 10.7543 2.02062 12.3791 4.08291 12.3791H9.43906C11.5013 12.3791 13.1886 10.7543 13.1886 8.76843V3.61066C13.1886 1.62476 11.5013 0 9.43906 0Z" fill="#FFF6D7"/>
<path d="M10.2424 3.6112C10.0835 3.6112 9.9282 3.56582 9.79608 3.48081C9.66395 3.39579 9.56097 3.27496 9.50016 3.13359C9.43935 2.99221 9.42344 2.83665 9.45444 2.68657C9.48544 2.53648 9.56196 2.39863 9.67432 2.29042C9.78669 2.18222 9.92985 2.10853 10.0857 2.07868C10.2416 2.04883 10.4031 2.06415 10.5499 2.12271C10.6967 2.18127 10.8222 2.28043 10.9105 2.40767C10.9988 2.5349 11.0459 2.68448 11.0459 2.83751C11.0461 2.93917 11.0255 3.03988 10.9852 3.13384C10.9449 3.22781 10.8857 3.31319 10.8111 3.38508C10.7364 3.45697 10.6478 3.51395 10.5502 3.55275C10.4526 3.59156 10.348 3.61142 10.2424 3.6112ZM6.76092 4.12681C7.1847 4.12681 7.59895 4.24782 7.95131 4.47454C8.30366 4.70125 8.57829 5.02349 8.74046 5.40051C8.90263 5.77752 8.94506 6.19238 8.86239 6.59261C8.77971 6.99285 8.57565 7.36049 8.27599 7.64904C7.97634 7.9376 7.59456 8.1341 7.17893 8.21372C6.7633 8.29333 6.33249 8.25247 5.94097 8.0963C5.54946 7.94014 5.21483 7.67569 4.97939 7.33638C4.74396 6.99708 4.61829 6.59816 4.61829 6.19009C4.6189 5.64305 4.84484 5.11859 5.24653 4.73178C5.64822 4.34496 6.19285 4.1274 6.76092 4.12681ZM6.76092 3.09531C6.12529 3.09531 5.50394 3.27682 4.97543 3.61688C4.44692 3.95693 4.035 4.44027 3.79176 5.00577C3.54851 5.57126 3.48487 6.19352 3.60887 6.79385C3.73288 7.39418 4.03896 7.94561 4.48842 8.37842C4.93788 8.81123 5.51053 9.10598 6.13394 9.2254C6.75736 9.34481 7.40355 9.28352 7.99079 9.04929C8.57804 8.81505 9.07997 8.41839 9.4331 7.90945C9.78624 7.40052 9.97473 6.80218 9.97473 6.19009C9.97473 5.3693 9.63613 4.58213 9.03343 4.00175C8.43072 3.42137 7.61328 3.09531 6.76092 3.09531Z" fill="#FFF6D7"/>
</svg>
