<svg width="15" height="12" viewBox="0 0 15 12" fill="none" xmlns="http://www.w3.org/2000/svg">
<path d="M14.1067 1.97227C13.59 2.19676 13.0434 2.34466 12.484 2.4113C13.0719 2.06707 13.514 1.5202 13.7274 0.873263C13.1716 1.19826 12.5645 1.42629 11.9322 1.54759C11.666 1.26854 11.3457 1.04655 10.991 0.895113C10.6363 0.743674 10.2545 0.665949 9.86878 0.666661C8.30722 0.666661 7.0435 1.91201 7.0435 3.44718C7.0424 3.66071 7.06687 3.87361 7.11639 4.08133C5.99663 4.02883 4.90016 3.74319 3.89713 3.24266C2.89409 2.74213 2.00658 2.03774 1.29137 1.17456C1.04045 1.59755 0.907757 2.08017 0.907146 2.57199C0.907146 3.53613 1.41016 4.38836 2.16971 4.88765C1.7197 4.87697 1.27891 4.75786 0.884764 4.54044V4.57488C0.884764 5.92353 1.86038 7.04549 3.15164 7.30087C2.90882 7.3656 2.6586 7.3984 2.4073 7.39843C2.22899 7.39874 2.05108 7.38144 1.87617 7.34678C2.23514 8.45153 3.27991 9.25498 4.51751 9.27794C3.51187 10.053 2.27721 10.4718 1.00758 10.4688C0.782214 10.4684 0.557061 10.455 0.333252 10.4286C1.62485 11.2533 3.12623 11.6896 4.65869 11.6854C9.86276 11.6854 12.7058 7.44721 12.7058 3.77143C12.7058 3.65091 12.7027 3.53039 12.6969 3.41274C13.2488 3.02022 13.7262 2.53242 14.1067 1.97227Z" fill="#FFF6D7"/>
</svg>
