<svg width="13" height="9" viewBox="0 0 13 9" fill="none" xmlns="http://www.w3.org/2000/svg">
<path d="M12.8888 2.41296C12.8095 1.64735 12.6375 0.801839 12.0054 0.356956C11.515 0.0120846 10.8713 -0.000558454 10.2704 1.6331e-05C8.99969 0.0011659 7.72901 0.00231182 6.45832 0.00346139C5.23625 0.00461096 4.01419 0.0057639 2.79213 0.00691347C2.28154 0.00691347 1.78542 -0.0321716 1.3113 0.186822C0.903751 0.375351 0.585354 0.733439 0.394316 1.13176C0.128021 1.68643 0.0718678 2.3141 0.0400282 2.92739C-0.0190198 4.04363 -0.0126515 5.16331 0.0585535 6.27839C0.110076 7.09286 0.241486 7.9924 0.875383 8.51143C1.4375 8.97126 2.23059 8.99368 2.95885 8.99425C5.27214 8.99598 7.58544 8.9977 9.89873 9C10.1951 9 10.5048 8.99483 10.807 8.96207C11.4021 8.89827 11.9689 8.72928 12.351 8.29187C12.7365 7.85101 12.8355 7.23656 12.8945 6.65546C13.037 5.24608 13.0352 3.82176 12.8888 2.41296ZM5.12047 6.47669V2.52332L8.56899 4.50001L5.12047 6.47669Z" fill="#FFF6D7"/>
</svg>
